<?xml version="1.0" encoding="utf-8"?>
<!-- Generator: Adobe Illustrator 22.0.1, SVG Export Plug-In . SVG Version: 6.00 Build 0)  -->
<svg version="1.1" xmlns="http://www.w3.org/2000/svg" xmlns:xlink="http://www.w3.org/1999/xlink" x="0px" y="0px"
	 viewBox="0 0 40 40" style="enable-background:new 0 0 40 40;" xml:space="preserve">
<style type="text/css">
	.st0{display:none;}
	.st1{display:inline;}
	.st2{fill:#FFFFFF;}
	.st3{display:inline;fill:#FFFFFF;}
	.st4{fill:none;}
</style>
<g id="Layer_1" class="st0">
	<g class="st1">
		<rect x="-0.5" y="-0.5" width="42" height="40"/>
		<path class="st2" d="M41,0v39H0V0H41 M42-1H-1v41h43V-1L42-1z"/>
	</g>
</g>
<g id="csc" class="st0">
	<g class="st1">
		<path class="st2" d="M12.5,16.4c0.4,0.1,0.8,0.1,1.2-0.1c0.2-0.1,0.3-0.3,0.2-0.5c0-0.1-0.1-0.1-0.1-0.2c0-0.1-0.1-0.1-0.1-0.2
			l0,0c-0.1-0.3-0.1-0.8-0.1-1.3c0-0.9,0.1-1.6,0.3-1.7c0.1-0.1,0.1-0.1,0.1-0.2c0-0.2,0-0.3,0-0.5c0-0.1,0-0.1,0-0.2
			c-0.1-0.4-0.2-0.9-0.2-1.3c0-3.4,3.2-6.2,7.1-6.2c3.2,0,5.9,1.8,6.8,4.3c0.2,0.4,0.4,0.8,0.4,1.3c0.1,0.7,0.1,1.5,0.1,2.2
			c0,0.1,0,0.2,0,0.4c0,0.1,0,0.2,0.1,0.2c0.1,0.1,0.1,0.2,0.1,0.2c0,0.2,0.1,0.5,0.1,0.8c0,0.8-0.1,1.5-0.4,2.2l0,0
			c0,0.1,0,0.1-0.1,0.1c-0.1,0.2,0.1,0.4,0.2,0.5l0,0c0.1,0.1,0.1,0.1,0.1,0.2c-0.1,1.1-0.5,2.1-1.1,3c-0.6,0.9-1.5,1.6-2.5,2.1
			c-0.2,0.1-0.5,0.2-0.7,0.3c-0.1,0-0.1,0-0.2,0c-0.3-0.1-0.5-0.1-0.9,0c-0.5,0.2-1,0.3-1.5,0.5c-0.5,0.1-0.8,0.4-0.8,0.9
			c0,0.4,0.2,0.7,0.7,0.9c0,0,0,0,0.1,0h0.3c0.1,0,0.1,0,0.1,0c0.5-0.2,1.2-0.4,1.7-0.5c0.3-0.1,0.6-0.2,0.7-0.5
			c0.1-0.3,0.4-0.4,0.6-0.5c0.8-0.4,1.5-0.9,2.1-1.4c0.7-0.7,1.2-1.4,1.6-2.2s0.6-1.6,0.7-2.4c0-0.1,0.1-0.1,0.1-0.2
			c0.6-0.2,0.9-0.7,0.9-1.3c0-1,0-2.1,0-3.2c0-0.5-0.2-1-0.8-1.2c-0.2-0.1-0.4-0.3-0.4-0.5c-0.1-0.3-0.1-0.6-0.1-0.9
			c-0.2-0.9-0.6-1.8-1.2-2.6c-0.5-0.7-1.1-1.4-1.8-2c-0.7-0.5-1.5-1-2.4-1.3c-0.5-0.1-1.3-0.2-2-0.3c-0.1,0-0.1,0-0.1,0
			c-0.1,0-0.1,0-0.1,0h-0.8c-0.1,0-0.2,0-0.2,0C20.1,3,19.8,3,19.5,3.1c-1.2,0.2-2.3,0.7-3.4,1.3c-0.8,0.5-1.5,1.2-2,1.9
			C13.6,7,13.2,7.8,13,8.6c-0.2,0.6-0.3,1.2-0.4,1.8c0,0.1-0.1,0.2-0.2,0.2c-0.6,0.2-1,0.6-1,1.2c0,1.2,0,2.3,0,3.4
			C11.6,15.7,12,16.2,12.5,16.4z"/>
		<path class="st2" d="M15.2,13.1c-0.2,0.1-0.3,0.4-0.3,0.5c-0.1,0.8,0.1,1.6,0.5,2.3c0.2,0.3,0.4,0.7,0.6,1c0.5,0.9,1,1.8,1.8,2.6
			c1.9,2.1,4.7,2.1,6.5-0.1c0.5-0.7,1-1.5,1.5-2.2c0.3-0.5,0.6-1,0.9-1.5c0.4-0.7,0.5-1.3,0.4-2.1c0-0.2-0.1-0.4-0.2-0.5
			c-0.5-0.2-0.4-0.5-0.4-1c0.1-0.4,0.1-0.9,0.1-1.3c0.2-2.4-0.9-4.2-3.1-5c-1.6-0.6-3.2-0.6-4.8-0.1c-1.7,0.6-3,1.8-3.2,3.7
			c-0.1,0.9,0,1.9,0,2.8C15.5,12.7,15.6,13,15.2,13.1z M15.8,13.4c0.2,0.1,0.4,0.2,0.7,0.3c-0.1-0.5-0.1-1.1-0.2-1.7
			c-0.1-1.2,0.7-2.5,1.8-2.8c0.2-0.1,0.6,0.1,0.8,0.2c1.5,1.5,3.4,2,5.4,2.2c0.4,0.1,0.9,0.1,1.3,0.2c-0.1,0.7-0.2,1.3-0.3,2
			c0.2-0.1,0.5-0.2,0.7-0.3c0.1,0.3,0.3,0.6,0.3,0.9c0,0.4-0.2,0.7-0.3,1c-0.5,0.9-1,1.8-1.5,2.6c-0.6,1.1-1.3,2-2.7,2.3
			c-1.6,0.4-3.2-0.1-4.2-1.5c-0.3-0.5-0.6-1.2-0.9-1.8c-0.3-0.5-0.7-1-0.9-1.6c-0.2-0.4-0.4-0.9-0.4-1.3
			C15.5,13.9,15.7,13.6,15.8,13.4z"/>
		<path class="st2" d="M35.9,31.2c-0.6-3-2.1-5.3-5.1-6.5c-1.3-0.5-2.6-1.1-4-1.6c-0.2-0.1-0.5-0.2-0.7-0.4
			c-0.2,0.7-0.3,1.4-0.5,2.1c-0.7,3.2-2,6.2-4,8.9c-0.5,0.7-0.7,0.7-1.2,0c-1.8-2.3-3-4.8-3.7-7.5c-0.3-1.2-0.5-2.3-0.9-3.5
			c-1.6,0.7-3.4,1.4-5,2.1c-0.5,0.2-1,0.5-1.4,0.8c-2.3,1.8-3.4,4.1-3.5,6.9c-0.1,1.2,0.2,1.5,1.3,1.9c0.1,0.1,0.2,0.1,0.4,0.1
			c2.9,0.5,5.9,1,8.9,1.2c3.3,0.3,6.7,0.2,10-0.1c2.3-0.2,4.6-0.6,7-1c0.5-0.1,1.2-0.3,1.6-0.5c0.4-0.1,0.7-0.4,0.7-0.9
			C36,32.6,36.1,31.9,35.9,31.2z"/>
		<g>
			<path class="st2" d="M22.3,32c0-0.1,0.1-0.1,0-0.1c-0.1-0.2-0.1-0.4-0.1-0.7c0-0.2-0.1-0.4-0.1-0.5c-0.7,0.6-1.3,1.2-1.9,1.8
				c0.2,0.3,0.5,0.5,0.8,0.9C21.5,32.8,21.9,32.4,22.3,32z"/>
			<g>
				<path class="st2" d="M22.1,25.2C22.1,25.2,22.1,25.2,22.1,25.2c-0.7-0.4-1.5-0.4-2.1,0c-0.3,0.2-0.4,0.3-0.1,0.5
					c0.2,0.2,0.5,0.4,0.7,0.7c0.1,0.1,0.1,0.1,0.1,0.2c-0.1,0.2-0.1,0.5-0.1,0.7c0.3-0.2,0.6-0.5,0.9-0.7c0,0,0-0.1,0.1-0.1
					c0.1-0.1,0.1-0.1,0.1-0.2c0.2-0.2,0.5-0.4,0.7-0.7C22.4,25.5,22.4,25.4,22.1,25.2z"/>
				<path class="st2" d="M19.8,32.1c0.8-0.6,1.5-1.2,2.2-1.8l0.1-0.1C22,30,22,29.8,21.9,29.5c-0.1,0.1-0.1,0.1-0.1,0.1
					c-0.5,0.5-1.1,1.1-1.7,1.6c-0.2,0.2-0.4,0.4-0.4,0.7C19.7,31.9,19.7,32,19.8,32.1z"/>
				<path class="st2" d="M20.1,29.8c-0.1,0.2-0.1,0.5-0.1,0.7c0.1,0,0.1,0,0.1,0c0.6-0.5,1.2-0.9,1.8-1.4c0,0,0.1-0.1,0.1-0.1
					c-0.1-0.2-0.1-0.5-0.1-0.7c-0.1,0-0.1,0.1-0.1,0.1C21.2,28.8,20.7,29.3,20.1,29.8L20.1,29.8z"/>
				<path class="st2" d="M21.6,27.7c-0.1-0.2-0.1-0.5-0.1-0.7h-0.1c0,0.1-0.1,0.1-0.1,0.1c-0.2,0.2-0.5,0.5-0.8,0.8
					c-0.2,0.1-0.2,0.3-0.2,0.5s-0.1,0.3-0.1,0.5c0.1,0,0.1,0,0.1,0c0.4-0.4,0.9-0.7,1.3-1C21.6,27.8,21.6,27.7,21.6,27.7z"/>
			</g>
		</g>
	</g>
</g>
<g id="sac" class="st0">
	<path class="st3" d="M28.6,15.5l-2-0.1c-0.1-0.2-0.2-0.5-0.3-0.7l1.3-1.5c0.2-0.3,0.2-0.7,0-1l-1.9-1.9c-0.3-0.3-0.7-0.3-1,0
		l-1.5,1.3c-0.2-0.1-0.5-0.2-0.7-0.3l-0.1-2c0-0.4-0.3-0.6-0.7-0.6h-2.6c-0.4,0-0.7,0.3-0.7,0.6l-0.1,2c-0.2,0.1-0.5,0.2-0.7,0.3
		l-1.5-1.3c-0.3-0.2-0.7-0.2-1,0l-1.9,1.9c-0.3,0.3-0.3,0.7,0,1l1.3,1.5c-0.1,0.2-0.2,0.5-0.3,0.7l-2,0.1c-0.4,0-0.6,0.3-0.6,0.7
		v2.6c0,0.4,0.3,0.7,0.6,0.7l2,0.1c0.1,0.2,0.2,0.5,0.3,0.7l-1.3,1.5c-0.2,0.3-0.2,0.7,0,1l1.9,1.9c0.3,0.3,0.7,0.3,1,0l1.5-1.3
		c0.2,0.1,0.5,0.2,0.7,0.3l0.1,2c0,0.4,0.3,0.6,0.7,0.6h2.6c0.4,0,0.7-0.3,0.7-0.6l0.1-2c0.2-0.1,0.5-0.2,0.7-0.3l1.5,1.3
		c0.3,0.2,0.7,0.2,1,0l1.9-1.9c0.3-0.3,0.3-0.7,0-1l-1.3-1.5c0.1-0.2,0.2-0.5,0.3-0.7l2-0.1c0.4,0,0.6-0.3,0.6-0.7v-2.6
		C29.2,15.8,29,15.5,28.6,15.5z M27.8,18.1L26,18.2c-0.3,0-0.6,0.2-0.6,0.5c-0.1,0.5-0.3,0.9-0.6,1.3c-0.1,0.3-0.1,0.6,0.1,0.8
		l1.2,1.3l-0.9,0.9l-1.3-1.2c-0.2-0.2-0.6-0.2-0.8-0.1c-0.4,0.2-0.8,0.4-1.3,0.6c-0.3,0.1-0.5,0.3-0.5,0.6l-0.1,1.8h-1.3L19.7,23
		c0-0.3-0.2-0.6-0.5-0.6c-0.5-0.1-0.9-0.3-1.3-0.6c-0.3-0.1-0.6-0.1-0.8,0.1l-1.3,1.2l-0.9-0.9l1.2-1.3c0.2-0.2,0.2-0.6,0.1-0.8
		c-0.2-0.4-0.4-0.8-0.6-1.3c-0.1-0.3-0.3-0.5-0.6-0.5l-1.8-0.1v-1.3l1.8-0.1c0.3,0,0.6-0.2,0.6-0.5c0.1-0.5,0.3-0.9,0.6-1.3
		c0.1-0.3,0.1-0.6-0.1-0.8l-1.2-1.3l0.9-0.9l1.3,1.2c0.2,0.2,0.6,0.2,0.8,0.1c0.4-0.2,0.8-0.4,1.3-0.6c0.3-0.1,0.5-0.3,0.5-0.6
		l0.1-1.8h1.3l0.1,1.8c0,0.3,0.2,0.6,0.5,0.6c0.5,0.1,0.9,0.3,1.3,0.6c0.3,0.1,0.6,0.1,0.8-0.1l1.3-1.2l0.9,0.9l-1.2,1.3
		c-0.2,0.2-0.2,0.6-0.1,0.8c0.2,0.4,0.4,0.8,0.6,1.3c0.1,0.3,0.3,0.5,0.6,0.5l1.8,0.1V18.1z M20.5,14c-1.9,0-3.5,1.6-3.5,3.5
		s1.6,3.4,3.5,3.4c1.9,0,3.5-1.6,3.5-3.5C24,15.5,22.4,14,20.5,14z M20.5,19.5c-1.2,0-2.1-0.9-2.1-2.1s0.9-2.1,2.1-2.1
		s2.1,0.9,2.1,2.1S21.7,19.5,20.5,19.5z M37.1,4.5H4c-0.9,0-1.6,0.7-1.6,1.6v22.8c0,0.9,0.7,1.6,1.6,1.6h13.4l-0.3,2.9
		c0,0.2-0.2,1.7-3.1,1.7c-0.4,0-0.7,0.3-0.7,0.7s0.3,0.7,0.7,0.7h12.8c0.4,0,0.7-0.3,0.7-0.7s-0.3-0.7-0.7-0.7c-2.8,0-3-1.5-3.1-1.7
		l-0.3-2.9H37c0.9,0,1.6-0.7,1.6-1.6V6.1C38.7,5.2,38,4.5,37.1,4.5z M17.8,35.1c0.6-0.8,0.7-1.6,0.7-1.6l0.3-3h3.4l0.3,3
		c0,0,0,0.8,0.7,1.6L17.8,35.1L17.8,35.1z M37.4,28.9c0,0.1-0.1,0.2-0.2,0.2H4c-0.1,0-0.2-0.1-0.2-0.2V6.1c0-0.1,0.1-0.2,0.2-0.2
		h33.2c0.1,0,0.2,0.1,0.2,0.2V28.9L37.4,28.9z"/>
</g>
<g id="imc">
	<g>
		<g>
			<g>
				<path class="st2" d="M33.5,9.1c0,0.8,0,1.7,0,2.5c0,2,0,4,0,5.9c0,2.4,0,4.8,0,7.1c0,2,0,4.1,0,6.1c0,0.9,0,1.8,0,2.8
					c0,0.2,0,0.4,0,0.6c0-0.3,0,0,0,0.1c0,0.1,0,0.1-0.1,0.2c0,0,0,0.1,0,0.1c0,0.1,0.1-0.2,0-0.1c0,0.1-0.1,0.1-0.1,0.2
					c0,0-0.1,0.2,0-0.1c0,0,0,0-0.1,0.1c0,0-0.1,0.1-0.1,0.1c0.2-0.2,0,0,0,0c0,0-0.1,0-0.1,0c-0.2,0.1,0.1-0.1,0,0
					c-0.1,0.1-0.3,0.1-0.4,0.1c-0.1,0-0.2,0,0,0c0,0-0.1,0-0.1,0c-0.1,0-0.2,0-0.3,0c-0.3,0-0.6,0-0.9,0c-1.6,0-3.3,0-4.9,0
					c-2.3,0-4.7,0-7,0c-2.1,0-4.2,0-6.2,0c-0.6,0-1.3,0-1.9,0c-0.4,0-0.8,0-1.1,0c-0.1,0-0.2,0,0,0c0,0-0.1,0-0.1,0
					c-0.1,0-0.2,0-0.2-0.1c-0.1,0-0.1,0-0.2-0.1c0.3,0.1,0,0-0.1,0c0,0-0.1,0-0.1-0.1c-0.1-0.1,0.2,0.1,0.1,0c0,0-0.1-0.1-0.1-0.1
					c0,0-0.1-0.1,0,0.1c0,0,0-0.1-0.1-0.1c0-0.1-0.1-0.1-0.1-0.2c0.1,0.3,0,0,0-0.1c0-0.1,0-0.1-0.1-0.2c0,0,0-0.1,0-0.1
					c0-0.2,0,0.2,0,0c0-0.1,0-0.2,0-0.3c0-0.1,0-0.2,0-0.3c0-0.3,0-0.6,0-0.9c0-1.6,0-3.2,0-4.8c0-2.3,0-4.6,0-6.9
					c0-2.3,0-4.5,0-6.8c0-1.5,0-2.9,0-4.4c0-0.3,0-0.6,0-1c0-0.1,0-0.4,0-0.1c0-0.1,0-0.2,0-0.2c0-0.1,0-0.1,0.1-0.2
					c0,0,0-0.1,0-0.1c-0.1,0.2,0,0.1,0,0C9.3,8,9.4,8,9.4,7.9c0.1-0.1-0.1,0.2,0,0.1c0,0,0,0,0.1-0.1c0-0.1,0.2-0.2,0,0
					c0.1,0,0.1-0.1,0.2-0.1c0,0,0.1,0,0.1,0c-0.2,0.1-0.1,0-0.1,0c0.1,0,0.1,0,0.2-0.1c0.1,0,0.2,0,0.2,0c0.2,0-0.2,0,0,0
					c0.1,0,0.1,0,0.2,0c0.2,0,0.3,0,0.5,0c1.7,0,3.5,0,5.2,0c0,0,0,0,0,0c-0.3-0.3-0.5-0.5-0.8-0.8c0,1,0.6,2,1.5,2.4
					c0.5,0.2,0.9,0.3,1.4,0.3c0.9,0,1.8,0,2.8,0c1.1,0,2.1,0,3.2,0c0.2,0,0.4,0,0.7,0c0.9,0,1.8-0.5,2.3-1.3
					c0.3-0.4,0.4-0.9,0.4-1.4c-0.3,0.3-0.5,0.5-0.8,0.8c1.7,0,3.5,0,5.2,0c0.2,0,0.3,0,0.5,0c0,0,0.1,0,0.1,0c0.1,0,0.3,0,0,0
					c0.1,0,0.2,0,0.3,0.1c0.1,0,0.2,0,0.2,0.1c0.1,0-0.2-0.1-0.1,0c0,0,0.1,0,0.1,0.1c0,0,0.1,0,0.1,0.1c0.2,0.1-0.1-0.1,0,0
					c0.1,0,0.1,0.1,0.2,0.2c0.1,0.1-0.1-0.2,0-0.1c0,0,0,0.1,0.1,0.1c0,0,0,0.1,0,0.1c0.1,0.2-0.1-0.1,0,0c0.1,0.2,0.1,0.3,0.1,0.5
					c0-0.2,0-0.1,0,0c0,0.1,0,0.1,0,0.2C33.5,8.9,33.5,9,33.5,9.1c0,0.4,0.3,0.8,0.8,0.8c0.4,0,0.8-0.3,0.8-0.8
					c0-0.8-0.1-1.6-0.7-2.2c-0.5-0.6-1.4-0.7-2.2-0.8c-0.8,0-1.5,0-2.3,0c-1,0-2.1,0-3.1,0c-0.4,0-0.8,0.3-0.8,0.8
					c0,0.1,0,0.4,0,0.1c0,0.1,0,0.2-0.1,0.3c0,0,0,0.1,0,0.1c0.1-0.2,0-0.1,0,0c0,0,0,0.1-0.1,0.1c0,0-0.2,0.2,0,0
					c-0.1,0.1-0.1,0.1-0.2,0.2c0,0-0.1,0.1-0.1,0.1c0.2-0.1,0,0,0,0c-0.1,0.1-0.2,0.1-0.2,0.1c0.2-0.1,0.1,0,0,0C25.1,8,25.1,8,25,8
					c0,0-0.1,0-0.1,0c0.2,0,0.1,0,0,0c0,0-0.1,0-0.1,0c0,0,0,0-0.1,0c-0.1,0-0.2,0-0.3,0c-1,0-2,0-3,0c-1,0-2,0-3,0
					c-0.1,0-0.2,0-0.3,0c0,0,0,0-0.1,0c0,0,0,0,0,0c-0.1,0-0.1,0-0.1,0c-0.1,0-0.1,0,0.1,0c0,0-0.1,0-0.1,0c-0.1,0-0.2,0-0.3-0.1
					c-0.2-0.1,0.2,0.1,0,0c0,0-0.1,0-0.1-0.1c0,0-0.1,0-0.1-0.1c-0.1-0.1,0.1,0.1,0,0C17.1,7.7,17,7.6,17,7.6c-0.1-0.1,0.1,0.1,0,0
					c0,0-0.1-0.1-0.1-0.1c0,0,0-0.1-0.1-0.1c-0.1-0.2,0.1,0.2,0,0c0-0.1-0.1-0.2-0.1-0.3c0,0,0-0.2,0,0c0-0.1,0-0.1,0-0.2
					c0,0,0,0,0,0c0-0.4-0.4-0.8-0.8-0.8c-1.7,0-3.5,0-5.2,0c-0.5,0-1,0-1.5,0.2C8.5,6.5,8,7.1,7.8,7.8C7.6,8.4,7.6,8.9,7.6,9.5
					c0,1.3,0,2.7,0,4c0,2.2,0,4.4,0,6.7c0,2.3,0,4.7,0,7c0,1.7,0,3.4,0,5.1c0,1.3-0.2,3,1.1,3.8c0.6,0.4,1.4,0.4,2.1,0.4
					c0.5,0,1,0,1.6,0c2,0,3.9,0,5.9,0c2.4,0,4.7,0,7.1,0c1.8,0,3.6,0,5.4,0c0.4,0,0.7,0,1.1,0c0.4,0,0.8,0,1.3-0.1
					c0.8-0.2,1.3-0.8,1.6-1.5c0.2-0.5,0.2-1.1,0.2-1.7c0-0.5,0-1,0-1.5c0-1.9,0-3.7,0-5.6c0-2.4,0-4.7,0-7.1c0-2.1,0-4.2,0-6.4
					c0-1.1,0-2.3,0-3.4c0,0,0-0.1,0-0.1c0-0.4-0.3-0.8-0.8-0.8C33.8,8.3,33.5,8.7,33.5,9.1z"/>
			</g>
		</g>
		<g>
			<g>
				<path class="st2" d="M25.9,6.9c0,0.1,0,0.1,0,0.1c0,0.2,0-0.2,0,0c0,0.1,0,0.2-0.1,0.3c0,0-0.1,0.2,0,0c0,0,0,0.1-0.1,0.1
					c0,0,0,0.1-0.1,0.1c0,0,0,0.1-0.1,0.1c0.1-0.1,0.1-0.1,0,0c-0.1,0.1-0.1,0.1-0.2,0.2c0,0-0.2,0.1,0,0c0,0-0.1,0.1-0.1,0.1
					c-0.1,0-0.3,0.2-0.1,0.1C25.2,8,25.1,8,25,8c0,0-0.2,0,0,0c0,0-0.1,0-0.1,0c0,0,0,0-0.1,0c0,0,0,0-0.1,0c-0.1,0-0.2,0-0.3,0
					c-1,0-2,0-3,0c-1,0-2,0-3,0c-0.1,0-0.2,0-0.3,0c0,0,0,0-0.1,0c0,0,0,0-0.1,0c0,0-0.1,0-0.1,0c0.2,0,0,0,0,0
					c-0.1,0-0.2-0.1-0.3-0.1c0.2,0.1-0.1,0-0.1-0.1c0,0-0.1-0.1-0.1-0.1c0.2,0.1,0,0,0,0c-0.1-0.1-0.2-0.2-0.2-0.2
					c0.1,0.2,0-0.1-0.1-0.1c0,0,0-0.1-0.1-0.1c0.1,0.2,0,0.1,0,0c0-0.1-0.1-0.2-0.1-0.3c0-0.2,0,0.2,0,0c0-0.1,0-0.1,0-0.2
					c0-0.1,0-0.1,0-0.2c0,0.2,0,0,0-0.1c0-0.1,0-0.1,0.1-0.2c0-0.1,0-0.1,0,0c0,0,0-0.1,0.1-0.1c0,0,0.1-0.1,0.1-0.1
					c0-0.1,0-0.1,0,0c0,0,0-0.1,0.1-0.1c0,0,0.1-0.1,0.1-0.1c0,0,0.1,0,0.1-0.1c-0.1,0.1-0.1,0.1,0,0c0,0,0.1-0.1,0.1-0.1
					c0,0,0.3-0.1,0.1,0c0.1,0,0.2-0.1,0.4-0.1c-0.2,0,0,0,0,0c0,0,0.1,0,0.1,0c0,0,0.1,0,0.1,0c0.5,0,1,0,1.5,0
					c0.4,0,0.8-0.3,0.8-0.8c0-0.1,0-0.4,0-0.1c0-0.1,0-0.2,0.1-0.3c0.1-0.2-0.1,0.2,0,0c0-0.1,0.1-0.1,0.1-0.2c0,0,0.1-0.1,0.1-0.1
					c-0.1,0.2,0,0,0,0c0,0,0.1-0.1,0.1-0.1c0,0,0,0,0.1-0.1c-0.1,0.1-0.1,0.1,0,0C20.7,4,20.8,4,20.9,3.9c-0.2,0.1-0.1,0,0,0
					c0.1,0,0.1,0,0.2-0.1c0.1,0,0.3,0,0,0c0.1,0,0.1,0,0.2,0c0,0,0.1,0,0.1,0c0,0,0.1,0,0.1,0c-0.1,0-0.1,0-0.1,0
					c0.1,0,0.2,0.1,0.3,0.1c-0.2-0.1-0.1,0,0,0C21.8,4,21.9,4,22,4c0,0,0.1,0,0.1,0.1c-0.1-0.1-0.1-0.1,0,0c0,0,0.1,0.1,0.1,0.1
					c0,0,0.1,0.1,0.1,0.1c0.1,0.1,0,0,0,0c0,0,0,0.1,0.1,0.1c0,0,0,0.1,0.1,0.1c0,0,0.1,0.2,0,0c0,0.1,0.1,0.2,0.1,0.3
					c0,0.1,0,0.1,0-0.1c0,0,0,0.1,0,0.1c0,0,0,0.1,0,0.1c0,0.4,0.3,0.8,0.8,0.8c0.5,0,1,0,1.6,0c0,0,0.1,0,0.1,0c0,0,0.1,0,0.1,0
					c-0.1,0-0.1,0-0.1,0c0.1,0,0.1,0,0.2,0c0.1,0,0.1,0,0.2,0.1c-0.2-0.1,0,0,0,0c0.1,0,0.1,0.1,0.2,0.1c0.1,0,0.1,0,0,0
					c0,0,0,0,0.1,0.1c0.1,0.1,0.2,0.2,0.2,0.2c-0.1-0.2,0,0,0,0c0,0.1,0.1,0.1,0.1,0.2c0,0.1,0,0.1,0-0.1c0,0,0,0.1,0,0.1
					c0,0.1,0,0.1,0.1,0.2c0,0,0,0.1,0,0.1c0-0.1,0-0.1,0-0.1C25.9,6.8,25.9,6.8,25.9,6.9c0,0.4,0.3,0.8,0.8,0.8
					c0.4,0,0.8-0.3,0.8-0.8c0-0.7-0.3-1.3-0.7-1.8c-0.5-0.5-1.2-0.8-1.9-0.8c-0.6,0-1.1,0-1.7,0c0.3,0.3,0.5,0.5,0.8,0.8
					c0-1.5-1.1-2.6-2.6-2.6c-1.5,0-2.6,1.2-2.6,2.6c0.3-0.3,0.5-0.5,0.8-0.8c-0.4,0-0.9,0-1.3,0c-0.3,0-0.6,0-0.9,0.1
					c-0.5,0.1-1,0.5-1.4,0.9c-0.4,0.5-0.6,1.1-0.6,1.7c0,0.5,0.1,1,0.4,1.4c0.5,0.8,1.4,1.3,2.3,1.3c1.9,0,3.7,0,5.6,0
					c0.4,0,0.9,0,1.3,0c1.5,0,2.7-1.2,2.7-2.7c0-0.4-0.3-0.8-0.8-0.8C26.3,6.1,25.9,6.5,25.9,6.9z"/>
			</g>
		</g>
		<g>
			<g>
				<path class="st2" d="M28.9,16.7c-1.8,0-3.6,0-5.4,0c-0.5,0-1,0-1.5,0c-0.4,0-0.8,0.3-0.8,0.8c0,0.4,0.3,0.8,0.8,0.8
					c1.8,0,3.6,0,5.4,0c0.5,0,1,0,1.5,0c0.4,0,0.8-0.3,0.8-0.8C29.7,17,29.3,16.7,28.9,16.7L28.9,16.7z"/>
			</g>
		</g>
		<g>
			<g>
				<path class="st2" d="M22,28.3c1.8,0,3.6,0,5.4,0c0.5,0,1,0,1.5,0c0.4,0,0.8-0.3,0.8-0.8s-0.3-0.8-0.8-0.8c-1.8,0-3.6,0-5.4,0
					c-0.5,0-1,0-1.5,0c-0.4,0-0.8,0.3-0.8,0.8S21.6,28.3,22,28.3L22,28.3z"/>
			</g>
		</g>
		<g>
			<g>
				<path class="st2" d="M17.2,15.6c-0.9,0.9-1.7,1.7-2.6,2.6c0.4,0,0.7,0,1.1,0c-0.5-0.5-1-1-1.5-1.5c-0.3-0.3-0.8-0.3-1.1,0
					c-0.3,0.3-0.3,0.8,0,1.1c0.5,0.5,1,1,1.5,1.5c0.3,0.3,0.8,0.3,1.1,0c0.9-0.9,1.7-1.7,2.6-2.6c0.3-0.3,0.3-0.8,0-1.1
					C18,15.3,17.5,15.3,17.2,15.6L17.2,15.6z"/>
			</g>
		</g>
		<g>
			<g>
				<path class="st2" d="M16.7,25.5c-1,1-2,2-3,3c-0.3,0.3-0.3,0.8,0,1.1c0.3,0.3,0.8,0.3,1.1,0c1-1,2-2,3-3c0.3-0.3,0.3-0.8,0-1.1
					C17.5,25.2,17,25.2,16.7,25.5L16.7,25.5z"/>
			</g>
		</g>
		<g>
			<g>
				<path class="st2" d="M13.7,26.6c1,1,2,2,3,3c0.3,0.3,0.8,0.3,1.1,0c0.3-0.3,0.3-0.8,0-1.1c-1-1-2-2-3-3c-0.3-0.3-0.8-0.3-1.1,0
					C13.4,25.8,13.4,26.3,13.7,26.6L13.7,26.6z"/>
			</g>
		</g>
		<g>
			<g>
				<path class="st2" d="M15.7,18.2c-0.5-0.5-1-1-1.5-1.5c-0.3-0.3-0.8-0.3-1.1,0c-0.3,0.3-0.3,0.8,0,1.1c0.5,0.5,1,1,1.5,1.5
					c0.3,0.3,0.8,0.3,1.1,0C16,19,16,18.5,15.7,18.2L15.7,18.2z"/>
			</g>
		</g>
	</g>
</g>
<g id="tvc" class="st0">
	<g class="st1">
		<path class="st2" d="M16.2,19.2c0,5.4,4.4,9.9,9.9,9.9c5.4,0,9.9-4.5,9.9-9.9c0-5.5-4.5-9.9-9.9-9.9C20.6,9.3,16.2,13.7,16.2,19.2
			z M26.1,12.6c1.2,0,2.3,0.3,3.3,0.9l-9,9c-0.6-1-0.9-2.1-0.9-3.3C19.5,15.5,22.4,12.6,26.1,12.6z M26.1,25.8
			c-1.2,0-2.4-0.3-3.4-0.9l9-9c0.6,1,0.9,2.1,0.9,3.4C32.7,22.8,29.7,25.8,26.1,25.8z"/>
		<path class="st2" d="M34.3,27L31,9.3l-1-5.2c-0.1-0.7-0.7-1.2-1.4-1.2h-7.4v2h-1.7v-2h-6.8c-0.7,0-1.3,0.5-1.4,1.2L5,34.2
			C4.8,35.2,5.5,36,6.5,36h13v-2h1.7v2h13.1c0.9,0,1.6-0.8,1.4-1.7L34.3,27z M19.5,8.4h1.7v1.9c-0.6,0.4-1.1,0.8-1.7,1.3V8.4z
			 M21.1,30.4h-1.7v-3.7c0.5,0.5,1.1,1,1.7,1.3V30.4z M36,19.2c0,5.4-4.3,9.7-9.7,9.7s-9.7-4.3-9.7-9.7s4.3-9.7,9.7-9.7
			S36,13.8,36,19.2z"/>
	</g>
</g>
<g id="FMC" class="st0">
	<g class="st1">
		<path class="st2" d="M37,23.7c0-1.7-3-2.7-5.7-2.7c-2.8,0-5.7,1-5.8,2.6c-0.1,0.1-0.1,0.1-0.1,0.3v1c-1.2-0.7-3-1.1-4.8-1.1
			c-3,0-6.1,1-6.1,2.8c0,0,0,0.1,0,0.1c0,0,0,0.1,0,0.1V28c-1.1-0.7-3-1.2-4.9-1.2c-3,0-6,1-6,2.8c0,0,0,0.1,0,0.1c0,0,0,0.1,0,0.1
			v2.5c0,1.8,3.1,2.7,6,2.7c2.1,0,4.4-0.5,5.4-1.5c1,1,3.3,1.5,5.4,1.5s4.4-0.5,5.4-1.5c1,1,3.1,1.5,5.3,1.5c3.3,0,5.8-1.2,5.8-2.8
			v-2.4c0-0.1,0-0.1,0-0.2c0-0.1,0-0.2,0-0.3v-2.4c0-0.1,0-0.1,0-0.2c0-0.1,0-0.2,0-0.3v-2.4c0,0,0-0.1,0-0.1S37,23.7,37,23.7z
			 M35.9,29.3c0,0.7-1.8,1.6-4.7,1.6c-2.9,0-4.7-0.9-4.7-1.6v0v-1.3c1.1,0.7,2.9,1,4.7,1c2,0,3.6-0.4,4.7-1.1V29.3z M15.7,28.3
			c1.2,0.7,3.1,1,4.9,1c1.8,0,3.7-0.4,4.8-1.1v1.1c0,0.7-2.1,1.6-4.9,1.6c-2.9,0-4.9-0.9-4.9-1.6V28.3z M35.9,26.3
			c0,0.7-1.8,1.6-4.7,1.6c-2.9,0-4.7-0.9-4.7-1.6v-1.1c1.1,0.7,3,1,4.8,1c1.7,0,3.5-0.4,4.6-1V26.3z M31.3,22.1
			c2.8,0,4.6,0.9,4.6,1.6c0,0.6-1.8,1.6-4.6,1.6c-2.8,0-4.7-0.9-4.7-1.5C26.6,23.1,28.6,22.1,31.3,22.1z M20.6,25
			c2.9,0,4.8,1,4.8,1.6c0,0.6-1.9,1.6-4.8,1.6c-3,0-4.9-0.9-4.9-1.6C15.7,26,17.8,25,20.6,25z M9.7,28c2.9,0,4.8,1,4.8,1.6
			s-1.8,1.6-4.8,1.6s-4.9-0.9-4.9-1.6C4.9,29,6.9,28,9.7,28z M9.7,34c-2.9,0-4.9-0.9-4.9-1.6v-1.1c1.2,0.7,3,1,4.9,1
			s3.7-0.4,4.9-1.2v1.2C14.6,33,12.6,34,9.7,34z M20.6,34c-2.9,0-4.9-0.9-4.9-1.6v0V31c1.2,0.7,3,1.1,4.9,1.1c1.8,0,3.7-0.4,4.9-1.1
			v1.3C25.4,33,23.5,34,20.6,34z M31.2,34c-2.9,0-4.7-0.9-4.7-1.6v0v-1.3c1.1,0.7,2.9,1,4.7,1c2,0,3.6-0.4,4.7-1.1v1.3
			C35.9,33,34.1,34,31.2,34z"/>
		<path class="st2" d="M37.3,8.5c0,0,0-0.1,0-0.1c0,0,0-0.1,0-0.1c0,0,0-0.1,0-0.1c0-0.1,0-0.1-0.1-0.1c0,0,0-0.1,0-0.1
			c0-0.1-0.1-0.1-0.2-0.2l0,0l0,0c0-0.1-0.1-0.1-0.2-0.1c0,0-0.1,0-0.1-0.1c0,0-0.1-0.1-0.1-0.1c0,0-0.1,0-0.1,0c0,0-0.1,0-0.1,0
			s-0.1,0-0.1,0c0,0-0.1,0-0.1,0l-4-0.6C31,6.4,30.3,7,30.2,7.8s0.5,1.6,1.3,1.7l0.7,0.1l-8,7l-6-3.9c-0.6-0.4-1.3-0.3-1.8,0.1
			l-11.5,9c-0.7,0.5-0.8,1.5-0.3,2.1c0.3,0.4,0.7,0.6,1.2,0.6c0.3,0,0.7-0.1,0.9-0.3l10.6-8.3l6.1,4c0.6,0.4,1.3,0.3,1.9-0.1
			l8.8-7.8v0.7c0,0.9,0.7,1.5,1.5,1.5s1.5-0.7,1.5-1.5V8.6C37.3,8.6,37.3,8.5,37.3,8.5z"/>
	</g>
</g>
<g id="rpc" class="st0">
	<g class="st1">
		<path class="st2" d="M29.3,31.5L29.3,31.5c-2.3,1.5-5,2.4-7.9,2.4c-3.9,0-7.4-1.6-10-4.1c-2.6-2.6-4.1-6.1-4.1-10
			c0-3.1,1-6,2.7-8.4l0.3,1.5c0.1,0.6,0.7,0.9,1.2,0.8c0.6-0.1,0.9-0.7,0.8-1.2l-0.9-4.5L6.8,7.8c-0.6,0-1.1,0.5-1.1,1
			c0,0.6,0.5,1.1,1,1.1v0l1.7,0c-2.1,2.7-3.3,6.1-3.3,9.8c0,9,7.3,16.2,16.2,16.3c3.3,0,6.5-1,9.1-2.8c0.5-0.3,0.6-1,0.3-1.5
			C30.4,31.3,29.8,31.2,29.3,31.5z"/>
		<path class="st2" d="M35.9,29.5L35.9,29.5l-1.5,0c2-2.7,3.3-6.1,3.3-9.8c0-9-7.3-16.2-16.3-16.3c-3.4,0-6.5,1-9.1,2.8
			c-0.5,0.3-0.6,1-0.3,1.5c0.3,0.5,1,0.6,1.5,0.3l0,0c2.3-1.5,5-2.4,8-2.4c3.9,0,7.4,1.6,10,4.1c2.6,2.6,4.1,6.1,4.1,10
			c0,3.2-1.1,6.1-2.9,8.5l-0.3-1.7c-0.1-0.6-0.7-0.9-1.2-0.8c-0.6,0.1-0.9,0.7-0.8,1.2l0.9,4.5l4.6,0.1c0.6,0,1.1-0.5,1.1-1
			C36.9,30,36.4,29.5,35.9,29.5z"/>
		<path class="st2" d="M22.2,27.7c0.9,0,2.2-0.5,2.9-1.2l1.4-1.4c0.7-0.7,1.2-1.9,1.2-2.9v-8.4c0-0.9-0.8-1.7-1.7-1.7h-9.3
			c-0.9,0-1.7,0.8-1.7,1.7V26c0,0.9,0.8,1.7,1.7,1.7H22.2z M24.2,25.6c-0.2,0.2-0.5,0.4-0.8,0.5v-1.4c0-0.3,0.1-0.5,0.3-0.7
			c0.2-0.2,0.5-0.3,0.7-0.3H26c-0.1,0.2-0.3,0.4-0.4,0.6L24.2,25.6z M16.3,26V13.8c0-0.2,0.2-0.4,0.4-0.4H26c0.2,0,0.4,0.2,0.4,0.4
			v8.4c0,0,0,0.1,0,0.2h-1.9c-1.3,0-2.3,1-2.3,2.3v0.6l0,0.9v0.2h-1.8h-0.9h-2.7C16.5,26.4,16.3,26.2,16.3,26z"/>
		<path class="st2" d="M19.2,17.1h4.2c0.3,0,0.6-0.3,0.6-0.6c0-0.3-0.3-0.6-0.6-0.6h-4.2c-0.3,0-0.6,0.3-0.6,0.6
			C18.6,16.8,18.9,17.1,19.2,17.1z"/>
		<path class="st2" d="M19.2,20h2.4c0.3,0,0.6-0.3,0.6-0.6c0-0.3-0.3-0.6-0.6-0.6h-2.4c-0.3,0-0.6,0.3-0.6,0.6
			C18.6,19.7,18.9,20,19.2,20z"/>
		<path class="st2" d="M18.9,23h1.3c0.2,0,0.3-0.3,0.3-0.6c0-0.3-0.1-0.6-0.3-0.6h-1.3c-0.2,0-0.3,0.3-0.3,0.6
			C18.6,22.7,18.8,23,18.9,23z"/>
	</g>
</g>
<g id="court" class="st0">
	<g class="st1">
		<polygon class="st4" points="19.2,28.6 19.2,16.6 18.3,16.6 18.3,14.4 13.3,14.4 13.3,16.6 12.4,16.6 12.4,28.6 13.3,28.6 
			13.3,30.9 18.3,30.9 18.3,28.6 		"/>
		<circle class="st4" cx="21" cy="8.8" r="2.2"/>
		<polygon class="st4" points="29.6,28.6 29.6,16.6 28.7,16.6 28.7,14.4 23.7,14.4 23.7,16.6 22.8,16.6 22.8,28.6 23.7,28.6 
			23.7,30.9 28.7,30.9 28.7,28.6 		"/>
		<path class="st2" d="M21,2L5.7,13.7h30.6L21,2z M21,11c-1.2,0-2.2-1-2.2-2.2c0-1.2,1-2.2,2.2-2.2s2.2,1,2.2,2.2
			C23.2,10,22.2,11,21,11z"/>
		<polygon class="st2" points="12.4,28.6 12.4,16.6 13.3,16.6 13.3,14.4 7.8,14.4 7.8,16.6 8.7,16.6 8.7,28.6 7.8,28.6 7.8,30.9 
			13.3,30.9 13.3,28.6 		"/>
		<rect x="6.2" y="31.7" class="st2" width="29.6" height="1.7"/>
		<polygon class="st2" points="28.7,16.6 29.6,16.6 29.6,28.6 28.7,28.6 28.7,30.9 34.2,30.9 34.2,28.6 33.3,28.6 33.3,16.6 
			34.2,16.6 34.2,14.4 28.7,14.4 		"/>
		<rect x="4.9" y="34.1" class="st2" width="32.1" height="1.5"/>
		<polygon class="st2" points="22.8,28.6 22.8,16.6 23.7,16.6 23.7,14.4 18.3,14.4 18.3,16.6 19.2,16.6 19.2,28.6 18.3,28.6 
			18.3,30.9 23.7,30.9 23.7,28.6 		"/>
	</g>
</g>
<g id="countout" class="st0">
	<g class="st1">
		<path class="st2" d="M22.9,23.6c-0.5-7.1-3.3-9.3-8.4-9.3c0,0-8.8,0-8.8,10.6c0,9.1-2.9,8.3-2.9,8.3s2.1,1.8,8,2.3
			c0.1-0.6,0.2-1.3,0-2c-0.9-1-2.3-2.7-2.3-4.5c-1.3-0.4-1.6-1.3-1.2-2.2c4.2-3.4,3.4-8,3.4-8c1.4,5.5,8,7.1,9.8,7.2
			c0,0,2.2,1.3,0,2.8v0c-0.1,0.1-0.1,0.2-0.1,0.3c0,0.6-0.2,1-0.5,1.4c-0.5,0.5-1.3,0.7-2.4,0.8c-0.2-0.5-0.7-0.8-1.2-0.8
			c-0.7,0-1.3,0.6-1.3,1.3c0,0.7,0.6,1.3,1.3,1.3c0.6,0,1-0.4,1.2-0.9c0.9-0.1,1.6-0.2,2.2-0.5c-0.4,0.7-0.9,1.3-1.8,1.9
			c0,0.8,0.1,1.4,0.2,1.9c5.9-0.5,7.7-2.4,7.7-2.4S23.4,30.7,22.9,23.6z"/>
		<path class="st2" d="M24.3,20.5c0.1,0,0.2,0,0.3-0.1l3.1-3.1c0.1-0.1,0.2-0.1,0.3-0.1h6.8c2.4,0,4.4-2,4.4-4.4V10
			c0-2.4-2-4.4-4.4-4.4h-6.4c-2.4,0-4.4,2-4.4,4.4v10.1C23.9,20.4,24.1,20.5,24.3,20.5z M31.2,13.5v-2.1c-0.7-0.2-1.1-0.5-1.4-0.9
			c-0.3-0.4-0.5-0.8-0.5-1.4c0-0.5,0.2-1,0.5-1.4c0.3-0.4,0.8-0.6,1.4-0.6V6.7h0.7v0.5c0.5,0.1,1,0.2,1.3,0.5
			c0.3,0.3,0.5,0.7,0.6,1.2l-1.3,0.2c-0.1-0.4-0.3-0.7-0.6-0.8v2c0.8,0.2,1.4,0.5,1.6,0.8s0.4,0.8,0.4,1.3c0,0.6-0.2,1.1-0.6,1.5
			c-0.4,0.4-0.9,0.7-1.5,0.8v0.9h-0.7v-0.9c-0.6-0.1-1.1-0.3-1.4-0.6c-0.4-0.4-0.6-0.9-0.7-1.5l1.3-0.1c0.1,0.3,0.2,0.5,0.3,0.7
			C30.8,13.3,31,13.5,31.2,13.5z M31.2,8.3c-0.2,0.1-0.4,0.2-0.5,0.3c-0.1,0.2-0.2,0.3-0.2,0.5c0,0.2,0.1,0.3,0.2,0.5
			c0.1,0.2,0.3,0.3,0.5,0.4V8.3z M31.9,13.6c0.3,0,0.5-0.2,0.6-0.3c0.2-0.2,0.2-0.4,0.2-0.7c0-0.2-0.1-0.4-0.2-0.6
			c-0.1-0.2-0.3-0.3-0.7-0.4V13.6z"/>
	</g>
</g>
</svg>
