<?xml version="1.0" encoding="iso-8859-1"?>
<!-- Generator: Adobe Illustrator 19.0.0, SVG Export Plug-In . SVG Version: 6.00 Build 0)  -->
<svg xmlns="http://www.w3.org/2000/svg" xmlns:xlink="http://www.w3.org/1999/xlink" version="1.1" id="Capa_1" x="0px" y="0px" viewBox="0 0 512 512" style="enable-background:new 0 0 512 512;" xml:space="preserve" width="512px" height="512px">
<g>
	<g>
		<path d="M428.216,288.025h-0.078c-2.203,0-3.953,1.781-3.953,4c0,2.203,1.828,4,4.031,4c2.219,0,3.999-1.796,3.999-4    C432.214,289.806,430.435,288.025,428.216,288.025z" fill="#828087"/>
	</g>
</g>
<g>
	<g>
		<path d="M404.219,288.025h-0.078c-2.203,0-3.953,1.781-3.953,4c0,2.203,1.828,4,4.031,4c2.218,0,3.999-1.796,3.999-4    C408.217,289.806,406.436,288.025,404.219,288.025z" fill="#828087"/>
	</g>
</g>
<g>
	<g>
		<path d="M380.221,288.025h-0.078c-2.203,0-3.953,1.781-3.953,4c0,2.203,1.828,4,4.031,4c2.217,0,3.999-1.796,3.999-4    C384.221,289.806,382.44,288.025,380.221,288.025z" fill="#828087"/>
	</g>
</g>
<g>
	<g>
		<path d="M483.974,240.027H28.026c-15.436,0-27.997,12.562-27.997,28.001v183.979c0,15.436,12.561,27.997,27.997,27.997    c2.21,0,3.999-1.797,3.999-4c0-2.218-1.789-3.999-3.999-3.999c-11.026,0-19.998-8.968-19.998-19.998V268.028    c0-11.034,8.972-20.002,19.998-20.002h455.948c11.03,0,19.998,8.968,19.998,20.002v183.979c0,11.03-8.968,19.998-19.998,19.998    c-2.21,0-3.999,1.781-3.999,3.999c0,2.203,1.789,4,3.999,4c15.436,0,27.997-12.561,27.996-27.997V268.028    C511.971,252.589,499.411,240.027,483.974,240.027z" fill="#828087"/>
	</g>
</g>
<g>
	<g>
		<path d="M84.019,192.034c-16.545,0-33.652,0-58.821,25.169L9.201,233.185c-1.562,1.562-1.562,4.093,0,5.655    c0.782,0.781,1.805,1.172,2.828,1.172s2.046-0.391,2.827-1.172l15.998-15.982c22.826-22.825,37.562-22.825,53.166-22.825    c2.211,0,4-1.789,4-4C88.019,193.823,86.23,192.034,84.019,192.034z" fill="#828087"/>
	</g>
</g>
<g>
	<g>
		<path d="M502.8,233.185l-15.998-15.982c-25.169-25.169-42.276-25.169-58.821-25.169c-2.211,0-4,1.789-4,3.999c0,2.211,1.789,4,4,4    c15.607,0,30.34,0,53.166,22.825l15.998,15.982c0.781,0.781,1.805,1.172,2.828,1.172c1.022,0,2.046-0.391,2.827-1.172    C504.362,237.278,504.362,234.747,502.8,233.185z" fill="#828087"/>
	</g>
</g>
<g>
	<g>
		<path d="M108.018,192.033H84.021c-2.211,0-4,1.789-4,3.999c0,2.211,1.79,4,4,4h23.997c2.211,0,4-1.789,4-4    C112.018,193.822,110.229,192.033,108.018,192.033z" fill="#828087"/>
	</g>
</g>
<g>
	<g>
		<path d="M427.981,192.033h-23.997c-2.211,0-4,1.789-4,3.999c0,2.211,1.789,4,4,4h23.997c2.211,0,4-1.789,4-4    C431.981,193.822,430.192,192.033,427.981,192.033z" fill="#828087"/>
	</g>
</g>
<g>
	<g>
		<path d="M78.849,201.204c-1.563-1.562-4.094-1.562-5.656,0L41.196,233.2c-1.562,1.562-1.562,4.093,0,5.655    c0.781,0.781,1.805,1.172,2.828,1.172c1.024,0,2.047-0.39,2.828-1.172l31.997-31.996    C80.411,205.297,80.411,202.766,78.849,201.204z" fill="#828087"/>
	</g>
</g>
<g>
	<g>
		<path d="M44.024,248.026c-2.211,0-4,1.789-4,4v215.98c0,2.202,1.789,3.999,4,3.999s4-1.797,4-4V252.026    C48.024,249.815,46.234,248.026,44.024,248.026z" fill="#828087"/>
	</g>
</g>
<g>
	<g>
		<path d="M470.805,233.2l-31.997-31.996c-1.561-1.562-4.093-1.562-5.655,0s-1.562,4.093,0,5.655l31.997,31.996    c0.781,0.781,1.804,1.172,2.827,1.172s2.046-0.39,2.828-1.172C472.367,237.293,472.367,234.762,470.805,233.2z" fill="#828087"/>
	</g>
</g>
<g>
	<g>
		<path d="M467.977,248.026c-2.21,0-3.999,1.789-3.999,4v215.98c0,2.202,1.789,3.999,3.999,3.999c2.211,0,4-1.797,4-4V252.026    C471.977,249.815,470.188,248.026,467.977,248.026z" fill="#828087"/>
	</g>
</g>
<g>
	<g>
		<path d="M84.021,472.005H28.026c-2.211,0-4,1.781-4,3.999c0,2.203,1.789,4,4,4h55.994c2.21,0,4-1.797,4-4    C88.021,473.786,86.232,472.005,84.021,472.005z" fill="#828087"/>
	</g>
</g>
<g>
	<g>
		<path d="M483.974,472.005h-55.993c-2.211,0-4,1.781-4,3.999c0,2.203,1.789,4,4,4h55.994c2.211,0,4-1.797,3.999-4    C487.974,473.786,486.185,472.005,483.974,472.005z" fill="#828087"/>
	</g>
</g>
<g>
	<g>
		<path d="M419.982,504.001H92.019c-2.21,0-3.999,1.781-3.999,4c0,2.202,1.789,3.999,3.999,3.999h327.962    c2.21,0,3.999-1.797,4-3.999C423.982,505.782,422.193,504.001,419.982,504.001z" fill="#828087"/>
	</g>
</g>
<g>
	<g>
		<path d="M283.997,488.003h-55.994c-2.21,0-3.999,1.781-3.999,3.999v15.999c0,2.202,1.789,3.999,3.999,3.999h55.994    c2.21,0,3.999-1.797,3.999-3.999v-15.999C287.997,489.784,286.208,488.003,283.997,488.003z M279.997,504.001h-47.994v-7.999    h47.994V504.001z" fill="#828087"/>
	</g>
</g>
<g>
	<g>
		<path d="M212.005,488.003H92.019c-2.21,0-3.999,1.781-3.999,3.999c0,2.203,1.789,4,3.999,4h119.986c2.211,0,4-1.797,4-4    C216.005,489.784,214.216,488.003,212.005,488.003z" fill="#828087"/>
	</g>
</g>
<g>
	<g>
		<path d="M419.982,488.003H299.995c-2.211,0-4,1.781-4,3.999c0,2.203,1.789,4,4,4h119.986c2.21,0,3.999-1.797,3.999-4    C423.98,489.784,422.191,488.003,419.982,488.003z" fill="#828087"/>
	</g>
</g>
<g>
	<g>
		<path d="M427.981,392.014H84.021c-2.211,0-4,1.781-4,4v63.992c0,2.203,1.79,4,4,4c2.211,0,4-1.797,4-4v-59.993h335.96v59.993    c0,2.203,1.789,4,4,4s4-1.797,4-4v-63.992C431.981,393.795,430.192,392.014,427.981,392.014z" fill="#828087"/>
	</g>
</g>
<g>
	<g>
		<path d="M109.501,448.289c-2.031-0.828-4.382,0.187-5.198,2.234l-15.998,39.995c-0.82,2.046,0.18,4.375,2.23,5.187    c0.484,0.203,0.988,0.297,1.484,0.297c1.585,0,3.089-0.953,3.714-2.516l15.998-39.995    C112.552,451.444,111.552,449.117,109.501,448.289z" fill="#828087"/>
	</g>
</g>
<g>
	<g>
		<path d="M423.698,490.518l-15.998-39.995c-0.828-2.046-3.172-3.062-5.202-2.234c-2.046,0.828-3.046,3.155-2.234,5.202    l15.998,39.995c0.625,1.563,2.133,2.516,3.719,2.516c0.5,0,1-0.094,1.483-0.297C423.51,494.892,424.51,492.564,423.698,490.518z" fill="#828087"/>
	</g>
</g>
<g>
	<g>
		<path d="M411.984,432.01H100.018c-2.21,0-3.999,1.781-3.999,3.999c0,2.203,1.789,4,3.999,4h311.964c2.211,0,3.999-1.797,4-4    C415.982,433.791,414.195,432.01,411.984,432.01z" fill="#828087"/>
	</g>
</g>
<g>
	<g>
		<path d="M267.998,416.012h-23.997c-2.211,0-4,1.78-4,3.999c0,2.203,1.79,3.999,4,3.999h23.997c2.211,0,4-1.796,4-3.999    C271.998,417.792,270.209,416.012,267.998,416.012z" fill="#828087"/>
	</g>
</g>
<g>
	<g>
		<path d="M124.016,0.023c-2.211,0-4,1.789-4,4v207.976c0,2.211,1.79,4,4,4c2.211,0,4-1.789,4-3.999V4.023    C128.016,1.812,126.227,0.023,124.016,0.023z" fill="#828087"/>
	</g>
</g>
<g>
	<g>
		<path d="M387.984,56.049c-2.21,0-3.999,1.789-3.999,3.999v151.951c0,2.211,1.789,4,3.999,4c2.211,0,4-1.789,4-3.999V60.048    C391.984,57.838,390.195,56.049,387.984,56.049z" fill="#828087"/>
	</g>
</g>
<g>
	<g>
		<path d="M331.992,0.039L124.016,0c-2.207,0-4,1.789-4,4c0,2.21,1.79,3.999,4,3.999l207.976,0.039c2.203,0,3.999-1.788,3.999-3.999    S334.203,0.039,331.992,0.039z" fill="#828087"/>
	</g>
</g>
<g>
	<g>
		<path d="M109.805,208.452c-1.972-1-4.374-0.179-5.366,1.789L96.44,226.24c-0.988,1.976-0.187,4.374,1.789,5.366    c0.575,0.289,1.183,0.422,1.785,0.422c1.468,0,2.879-0.812,3.581-2.212l7.999-15.998    C112.582,211.842,111.782,209.444,109.805,208.452z" fill="#828087"/>
	</g>
</g>
<g>
	<g>
		<path d="M411.984,224.028H100.018c-2.21,0-3.999,1.789-3.999,4s1.789,4,3.999,4h311.964c2.211,0,4-1.789,4-4    S414.195,224.028,411.984,224.028z" fill="#828087"/>
	</g>
</g>
<g>
	<g>
		<path d="M415.56,226.241l-7.999-15.999c-0.992-1.969-3.382-2.789-5.366-1.789c-1.977,0.992-2.773,3.39-1.789,5.366l7.999,15.998    c0.703,1.399,2.109,2.211,3.578,2.211c0.61,0,1.219-0.132,1.789-0.421C415.747,230.615,416.544,228.217,415.56,226.241z" fill="#828087"/>
	</g>
</g>
<g>
	<g>
		<path d="M331.992,16.053c-2.211,0-3.999,1.789-3.999,4v39.995c0,2.211,1.788,4,3.999,4s3.999-1.789,3.999-4V20.053    C335.99,17.842,334.203,16.053,331.992,16.053z" fill="#828087"/>
	</g>
</g>
<g>
	<g>
		<path d="M371.987,56.049h-39.995c-2.211,0-3.999,1.789-3.999,3.999c0,2.211,1.788,4,3.999,4h39.995c2.211,0,4-1.789,4-4    C375.987,57.838,374.198,56.049,371.987,56.049z" fill="#828087"/>
	</g>
</g>
<g>
	<g>
		<path d="M390.813,57.22L334.82,1.211c-1.562-1.562-4.093-1.562-5.655,0c-1.562,1.563-1.562,4.094,0,5.656l55.993,56.009    c0.781,0.781,1.805,1.172,2.827,1.172c1.024,0,2.047-0.391,2.828-1.172C392.375,61.313,392.375,58.782,390.813,57.22z" fill="#828087"/>
	</g>
</g>
<g>
	<g>
		<path d="M355.99,104.042H156.013c-2.211,0-4,1.789-4,4s1.789,4,4,4h199.976c2.211,0,4.001-1.789,4.001-4    S358.201,104.042,355.99,104.042z" fill="#828087"/>
	</g>
</g>
<g>
	<g>
		<path d="M355.99,136.039H156.013c-2.211,0-4,1.789-4,4c0,2.21,1.789,3.999,4,3.999h199.976c2.211,0,4-1.788,4.001-3.999    C359.99,137.828,358.201,136.039,355.99,136.039z" fill="#828087"/>
	</g>
</g>
<g>
	<g>
		<path d="M355.99,168.035H156.013c-2.211,0-4,1.789-4,4s1.789,4,4,4h199.976c2.211,0,4.001-1.789,4.001-4    S358.201,168.035,355.99,168.035z" fill="#828087"/>
	</g>
</g>
<g>
</g>
<g>
</g>
<g>
</g>
<g>
</g>
<g>
</g>
<g>
</g>
<g>
</g>
<g>
</g>
<g>
</g>
<g>
</g>
<g>
</g>
<g>
</g>
<g>
</g>
<g>
</g>
<g>
</g>
</svg>
