<?xml version="1.0" encoding="iso-8859-1"?>
<!-- Generator: Adobe Illustrator 19.0.0, SVG Export Plug-In . SVG Version: 6.00 Build 0)  -->
<svg xmlns="http://www.w3.org/2000/svg" xmlns:xlink="http://www.w3.org/1999/xlink" version="1.1" id="Layer_1" x="0px" y="0px" viewBox="0 0 328 328" style="enable-background:new 0 0 328 328;" xml:space="preserve" width="512px" height="512px">
<g id="XMLID_463_">
	<path id="XMLID_464_" d="M223,116.75c-34.488,0-65.145,16.716-84.298,42.47c-7.763-1.628-15.694-2.47-23.702-2.47   c-63.412,0-115,51.589-115,115c0,8.284,6.715,15,15,15h125.596c19.246,24.348,49.03,40,82.404,40c57.896,0,105-47.103,105-105   S280.896,116.75,223,116.75z M223,296.75c-41.356,0-75-33.645-75-75s33.644-75,75-75c41.354,0,75,33.645,75,75   S264.354,296.75,223,296.75z" fill="#687178"/>
	<path id="XMLID_468_" d="M253,206.75h-60c-8.285,0-15,6.716-15,15s6.715,15,15,15h60c8.283,0,15-6.716,15-15   S261.283,206.75,253,206.75z" fill="#687178"/>
	<path id="XMLID_469_" d="M177.75,64.001C177.75,29.4,149.601,1.25,115,1.25c-34.602,0-62.75,28.15-62.75,62.751   S80.398,126.75,115,126.75C149.601,126.75,177.75,98.602,177.75,64.001z" fill="#687178"/>
</g>
<g>
</g>
<g>
</g>
<g>
</g>
<g>
</g>
<g>
</g>
<g>
</g>
<g>
</g>
<g>
</g>
<g>
</g>
<g>
</g>
<g>
</g>
<g>
</g>
<g>
</g>
<g>
</g>
<g>
</g>
</svg>
