<svg width="1024" height="1024" xmlns="http://www.w3.org/2000/svg" class="icon">

 <g>
  <title>background</title>
  <rect fill="none" id="canvas_background" height="402" width="582" y="-1" x="-1"/>
 </g>
 <g>
  <title>Layer 1</title>
  <path id="svg_1" d="m512,1024c-282.766006,0 -512,-229.234009 -512,-512s229.233994,-512 512,-512s512,229.233994 512,512s-229.234009,512 -512,512zm10.922729,-821.76001a96,96 0 0 0 -95.630219,104.363007l21.617798,248.319977a77.568001,77.568001 0 0 0 77.311676,70.855042a76.373299,76.373299 0 0 0 76.202698,-70.940369l17.749268,-248.121033a97.507599,97.507599 0 0 0 -97.251587,-104.475998l0.000366,-0.000626zm3.299561,651.092407a71.111099,71.111099 0 1 0 0,-142.222046a71.111099,71.111099 0 0 0 0,142.222046z" fill="#b62323"/>
 </g>
</svg>