<?xml version="1.0" encoding="iso-8859-1"?>
<!-- Generator: Adobe Illustrator 16.0.0, SVG Export Plug-In . SVG Version: 6.00 Build 0)  -->
<!DOCTYPE svg PUBLIC "-//W3C//DTD SVG 1.1//EN" "http://www.w3.org/Graphics/SVG/1.1/DTD/svg11.dtd">
<svg xmlns="http://www.w3.org/2000/svg" xmlns:xlink="http://www.w3.org/1999/xlink" version="1.1" id="Capa_1" x="0px" y="0px" width="512px" height="512px" viewBox="0 0 612 612" style="enable-background:new 0 0 612 612;" xml:space="preserve">
<g>
	<path d="M612,306C612,137.012,474.988,0,306,0S0,137.012,0,306s137.012,306,306,306S612,474.988,612,306z M266.105,394.587   c-7.918-9.257-13.732-23.562-17.48-42.878l25.283-6.196c3.442,13.655,7.65,23.408,12.661,29.261   c5.202,5.585,12.164,8.377,20.808,8.377c8.453,0,15.491-3.175,21.152-9.562c5.584-6.273,8.377-14.42,8.377-24.403   c0-8.912-2.333-16.027-7-21.42c-2.371-2.678-5.891-5.623-10.519-8.874c-4.629-3.29-10.558-6.847-17.787-10.71   c-14.841-7.842-24.633-15.033-29.299-21.612c-7.42-9.792-11.131-21.497-11.131-35.19c0-6.464,0.88-12.508,2.639-18.054   c1.76-5.585,4.322-10.634,7.65-15.147c3.328-4.513,7.458-8.491,12.354-11.819s10.442-5.929,16.677-7.803v-26.431h20.119v26.431   c9.027,1.721,16.447,5.202,22.186,10.519c5.737,5.316,11.245,13.425,16.447,24.403l-22.415,14.688   c-6.77-14.382-15.567-21.573-26.469-21.573c-6.732,0-12.354,2.333-16.792,7s-6.656,10.519-6.656,17.519   c0,6.388,1.798,11.666,5.394,15.912c3.519,4.131,10.671,9.027,21.382,14.688c9.295,4.972,16.944,9.601,23.026,13.961   c6.043,4.361,10.595,8.568,13.655,12.623c8.683,10.978,13.005,24.212,13.005,39.78c0,15.262-3.901,28.764-11.743,40.43   c-7.726,11.59-18.092,19.432-31.021,23.447v27.923h-20.119v-27.081C285.46,409.887,273.985,403.844,266.105,394.587z" fill="#637283"/>
</g>
<g>
</g>
<g>
</g>
<g>
</g>
<g>
</g>
<g>
</g>
<g>
</g>
<g>
</g>
<g>
</g>
<g>
</g>
<g>
</g>
<g>
</g>
<g>
</g>
<g>
</g>
<g>
</g>
<g>
</g>
</svg>
