<?xml version="1.0" encoding="iso-8859-1"?>
<!-- Generator: Adobe Illustrator 18.1.1, SVG Export Plug-In . SVG Version: 6.00 Build 0)  -->
<svg xmlns="http://www.w3.org/2000/svg" xmlns:xlink="http://www.w3.org/1999/xlink" version="1.1" id="Capa_1" x="0px" y="0px" viewBox="0 0 612 612" style="enable-background:new 0 0 612 612;" xml:space="preserve" width="512px" height="512px">
<g>
	<g>
		<g>
			<g>
				<path d="M107.097,222.592h84.196v236.473c0,10.139,8.218,18.357,18.357,18.357h192.674c10.138,0,18.357-8.218,18.357-18.357      V222.592h84.193c0.012,0,0.024,0,0.031,0c10.139,0,18.357-8.219,18.357-18.357c0-6.124-2.997-11.547-7.606-14.881      L317.426,31.389c-6.696-5.334-16.185-5.334-22.881,0L95.656,189.878c-6.102,4.863-8.463,13.05-5.888,20.416      C92.344,217.66,99.293,222.592,107.097,222.592z M452.382,185.878h-50.058c-10.138,0-18.357,8.218-18.357,18.357v236.473      h-155.96V204.235c0-10.139-8.219-18.357-18.357-18.357h-50.061L305.985,69.22L452.382,185.878z" fill="#448ccb"/>
				<path d="M593.643,399.528c-10.138,0-18.357,8.219-18.357,18.357v130.012H36.714V417.885c0-10.138-8.219-18.357-18.357-18.357      S0,407.747,0,417.885v148.369c0,10.138,8.219,18.357,18.357,18.357h575.286c10.138,0,18.357-8.219,18.357-18.357V417.885      C612,407.747,603.781,399.528,593.643,399.528z" fill="#448ccb"/>
			</g>
		</g>
	</g>
</g>
<g>
</g>
<g>
</g>
<g>
</g>
<g>
</g>
<g>
</g>
<g>
</g>
<g>
</g>
<g>
</g>
<g>
</g>
<g>
</g>
<g>
</g>
<g>
</g>
<g>
</g>
<g>
</g>
<g>
</g>
</svg>
