<?xml version="1.0" encoding="iso-8859-1"?>
<!-- Generator: Adobe Illustrator 19.0.0, SVG Export Plug-In . SVG Version: 6.00 Build 0)  -->
<svg xmlns="http://www.w3.org/2000/svg" xmlns:xlink="http://www.w3.org/1999/xlink" version="1.1" id="Layer_1" x="0px" y="0px" viewBox="0 0 512.13 512.13" style="enable-background:new 0 0 512.13 512.13;" xml:space="preserve" width="512px" height="512px">
<g transform="translate(0 -1)">
	<g>
		<g>
			
				<rect x="371.283" y="65.145" transform="matrix(-0.7071 -0.7071 0.7071 -0.7071 677.6613 445.1276)" width="119.473" height="34.14" fill="#006DF0"/>
			<path d="M496.862,27.373l-11.349-11.341c-20.002-19.994-52.489-20.036-72.576-0.171l84.403,84.403     C517.052,79.964,516.932,47.452,496.862,27.373z" fill="#006DF0"/>
			
				<rect x="218.363" y="58.863" transform="matrix(0.7071 0.7071 -0.7071 0.7071 227.7234 -107.7816)" width="51.204" height="324.266" fill="#006DF0"/>
			<path d="M56.915,371.844c-0.085,0.077-0.111,0.196-0.188,0.282c-0.657,0.7-1.237,1.485-1.621,2.398l-0.034,0.077     c-0.009,0.008-0.009,0.017-0.017,0.026L0.8,501.235c-1.374,3.209-0.657,6.929,1.809,9.395c1.63,1.63,3.814,2.5,6.033,2.5     c1.135,0,2.278-0.23,3.362-0.691l126.549-54.246h0.009l0.154-0.068c0.905-0.384,1.681-0.964,2.389-1.621     c0.085-0.077,0.196-0.102,0.282-0.179l18.654-18.662L75.569,353.19L56.915,371.844z" fill="#006DF0"/>
			<path d="M352.577,76.18l42.24,42.24c3.328,3.337,3.328,8.73,0,12.066L153.46,371.843c-1.673,1.672-3.857,2.5-6.033,2.5     c-2.185,0-4.369-0.828-6.033-2.5l-42.24-42.24l-11.52,11.52l84.48,84.48l277.009-277.009l-84.48-84.48L352.577,76.18z" fill="#006DF0"/>
		</g>
	</g>
</g>
<g>
</g>
<g>
</g>
<g>
</g>
<g>
</g>
<g>
</g>
<g>
</g>
<g>
</g>
<g>
</g>
<g>
</g>
<g>
</g>
<g>
</g>
<g>
</g>
<g>
</g>
<g>
</g>
<g>
</g>
</svg>
