<svg width="1024" height="1024" xmlns="http://www.w3.org/2000/svg" class="icon">

 <g>
  <title>background</title>
  <rect fill="none" id="canvas_background" height="402" width="582" y="-1" x="-1"/>
 </g>
 <g>
  <title>Layer 1</title>
  <path id="svg_1" d="m960,287.899994l-513.299988,-155l-382.700012,155l513.299988,185l382.700012,-185zm-756.099976,-2.700012l245.199982,-99.299988l373.600006,112.799988l-248.299988,120l-370.5,-133.5zm681.900024,118.5l74.200012,22.399994l-382.700012,185l-513.300049,-184.999969l76.100006,-30.799988l70.5,25.399994l-6.600006,2.700012l370.5,133.5l248.299988,-120l-3.399963,-1l66.399963,-32.200012l0.000061,-0.000031zm0,140.000031l74.200012,22.399963l-382.700012,185l-513.300049,-185l76.100006,-30.799988l70.5,25.399963l-6.600006,2.700012l370.5,133.5l248.299988,-120l-3.399963,-1l66.399963,-32.200012l0.000061,0.000061zm0,140l74.200012,22.399963l-382.700012,185l-513.300049,-185l76.100006,-30.799988l70.5,25.399963l-6.600006,2.700012l370.5,133.5l248.299988,-120l-3.399963,-1l66.399963,-32.200012l0.000061,0.000061z" fill="#ffffff"/>
 </g>
</svg>